<mxfile host="65bd71144e">
    <diagram id="ogzL6LPVLsaKoQ8t-iaY" name="Page-1">
        <mxGraphModel dx="6020" dy="3114" grid="1" gridSize="10" guides="1" tooltips="1" connect="1" arrows="1" fold="1" page="1" pageScale="1" pageWidth="827" pageHeight="1169" math="0" shadow="0">
            <root>
                <mxCell id="0"/>
                <mxCell id="1" parent="0"/>
                <mxCell id="32" value="" style="whiteSpace=wrap;html=1;aspect=fixed;rounded=1;strokeColor=#FFFFFF;fontColor=#FFFFFF;fillColor=default;" vertex="1" parent="1">
                    <mxGeometry x="-3900" y="-1545" width="140" height="140" as="geometry"/>
                </mxCell>
                <mxCell id="2" value="" style="rounded=0;whiteSpace=wrap;html=1;movable=1;resizable=1;rotatable=1;deletable=1;editable=1;locked=0;connectable=1;" parent="1" vertex="1">
                    <mxGeometry x="-4720" y="-1755" width="880" height="635" as="geometry"/>
                </mxCell>
                <mxCell id="3" style="edgeStyle=none;rounded=0;orthogonalLoop=1;jettySize=auto;html=1;exitX=0.5;exitY=0.5;exitDx=0;exitDy=0;exitPerimeter=0;" parent="1" source="5" target="7" edge="1">
                    <mxGeometry relative="1" as="geometry"/>
                </mxCell>
                <mxCell id="4" style="edgeStyle=none;rounded=0;orthogonalLoop=1;jettySize=auto;html=1;exitX=0.5;exitY=0.5;exitDx=0;exitDy=0;exitPerimeter=0;entryX=1;entryY=0.5;entryDx=0;entryDy=0;" parent="1" source="5" target="9" edge="1">
                    <mxGeometry relative="1" as="geometry">
                        <mxPoint x="-4030" y="-1455" as="targetPoint"/>
                    </mxGeometry>
                </mxCell>
                <mxCell id="5" value="Guest" style="shape=umlActor;verticalLabelPosition=bottom;verticalAlign=top;html=1;outlineConnect=0;" parent="1" vertex="1">
                    <mxGeometry x="-3810" y="-1520" width="30" height="60" as="geometry"/>
                </mxCell>
                <mxCell id="6" value="&lt;font style=&quot;font-size: 30px;&quot;&gt;&lt;font style=&quot;&quot; color=&quot;#ffffff&quot;&gt;Use Case Guest&lt;/font&gt;&lt;br&gt;&lt;/font&gt;" style="text;html=1;strokeColor=none;fillColor=none;align=center;verticalAlign=middle;whiteSpace=wrap;rounded=0;" parent="1" vertex="1">
                    <mxGeometry x="-4720" y="-1815" width="880" height="60" as="geometry"/>
                </mxCell>
                <mxCell id="7" value="Se connecter" style="ellipse;whiteSpace=wrap;html=1;" parent="1" vertex="1">
                    <mxGeometry x="-4190" y="-1370" width="140" height="70" as="geometry"/>
                </mxCell>
                <mxCell id="8" value="Accès Lecture&lt;br&gt;évènements (Show)" style="ellipse;whiteSpace=wrap;html=1;" parent="1" vertex="1">
                    <mxGeometry x="-4392.5" y="-1665" width="140" height="70" as="geometry"/>
                </mxCell>
                <mxCell id="9" value="Accès Liste&lt;br&gt;évènements" style="ellipse;whiteSpace=wrap;html=1;" parent="1" vertex="1">
                    <mxGeometry x="-4190" y="-1520" width="140" height="70" as="geometry"/>
                </mxCell>
                <mxCell id="10" value="Tri évènements (Asc)" style="ellipse;whiteSpace=wrap;html=1;" parent="1" vertex="1">
                    <mxGeometry x="-4500" y="-1600" width="140" height="70" as="geometry"/>
                </mxCell>
                <mxCell id="11" value="Tri évènements (Desc)" style="ellipse;whiteSpace=wrap;html=1;" parent="1" vertex="1">
                    <mxGeometry x="-4505" y="-1510" width="140" height="70" as="geometry"/>
                </mxCell>
                <mxCell id="12" value="Recherche évènements (Par nom-titre)" style="ellipse;whiteSpace=wrap;html=1;" parent="1" vertex="1">
                    <mxGeometry x="-4500" y="-1420" width="140" height="70" as="geometry"/>
                </mxCell>
                <mxCell id="13" value="Tri évènements (Localisation utilisateur)" style="ellipse;whiteSpace=wrap;html=1;" parent="1" vertex="1">
                    <mxGeometry x="-4382.5" y="-1360" width="140" height="70" as="geometry"/>
                </mxCell>
                <mxCell id="14" value="extends" style="endArrow=open;startArrow=none;endFill=0;startFill=0;endSize=8;html=1;verticalAlign=bottom;dashed=1;labelBackgroundColor=none;rounded=0;exitX=0.5;exitY=0;exitDx=0;exitDy=0;entryX=1;entryY=1;entryDx=0;entryDy=0;" parent="1" source="9" target="8" edge="1">
                    <mxGeometry x="0.1315" y="-13" width="160" relative="1" as="geometry">
                        <mxPoint x="-4177.5" y="-1524.5" as="sourcePoint"/>
                        <mxPoint x="-4379.5" y="-1545.5" as="targetPoint"/>
                        <mxPoint as="offset"/>
                    </mxGeometry>
                </mxCell>
                <mxCell id="15" value="extends" style="endArrow=open;startArrow=none;endFill=0;startFill=0;endSize=8;html=1;verticalAlign=bottom;dashed=1;labelBackgroundColor=none;rounded=0;exitX=0;exitY=0;exitDx=0;exitDy=0;entryX=1;entryY=0.5;entryDx=0;entryDy=0;" parent="1" source="9" target="10" edge="1">
                    <mxGeometry x="0.1832" y="-8" width="160" relative="1" as="geometry">
                        <mxPoint x="-4207" y="-1455" as="sourcePoint"/>
                        <mxPoint x="-4360" y="-1540" as="targetPoint"/>
                        <mxPoint x="-1" as="offset"/>
                    </mxGeometry>
                </mxCell>
                <mxCell id="16" value="extends" style="endArrow=open;startArrow=none;endFill=0;startFill=0;endSize=8;html=1;verticalAlign=bottom;dashed=1;labelBackgroundColor=none;rounded=0;exitX=0;exitY=0.5;exitDx=0;exitDy=0;entryX=1;entryY=0.5;entryDx=0;entryDy=0;" parent="1" source="9" target="11" edge="1">
                    <mxGeometry x="0.1832" y="-8" width="160" relative="1" as="geometry">
                        <mxPoint x="-4159" y="-1500" as="sourcePoint"/>
                        <mxPoint x="-4350" y="-1555" as="targetPoint"/>
                        <mxPoint x="-1" as="offset"/>
                    </mxGeometry>
                </mxCell>
                <mxCell id="17" value="extends" style="endArrow=open;startArrow=none;endFill=0;startFill=0;endSize=8;html=1;verticalAlign=bottom;dashed=1;labelBackgroundColor=none;rounded=0;exitX=0;exitY=1;exitDx=0;exitDy=0;entryX=1;entryY=0.5;entryDx=0;entryDy=0;" parent="1" source="9" target="12" edge="1">
                    <mxGeometry x="0.1832" y="-8" width="160" relative="1" as="geometry">
                        <mxPoint x="-4149" y="-1490" as="sourcePoint"/>
                        <mxPoint x="-4340" y="-1545" as="targetPoint"/>
                        <mxPoint x="-1" as="offset"/>
                    </mxGeometry>
                </mxCell>
                <mxCell id="18" value="extends" style="endArrow=open;startArrow=none;endFill=0;startFill=0;endSize=8;html=1;verticalAlign=bottom;dashed=1;labelBackgroundColor=none;rounded=0;exitX=0.5;exitY=1;exitDx=0;exitDy=0;entryX=1;entryY=0;entryDx=0;entryDy=0;" parent="1" source="9" target="13" edge="1">
                    <mxGeometry x="0.1832" y="-8" width="160" relative="1" as="geometry">
                        <mxPoint x="-4139" y="-1480" as="sourcePoint"/>
                        <mxPoint x="-4330" y="-1535" as="targetPoint"/>
                        <mxPoint x="-1" as="offset"/>
                    </mxGeometry>
                </mxCell>
                <mxCell id="19" value="extends" style="endArrow=open;startArrow=none;endFill=0;startFill=0;endSize=8;html=1;verticalAlign=bottom;dashed=1;labelBackgroundColor=none;rounded=0;exitX=0;exitY=0.5;exitDx=0;exitDy=0;" parent="1" source="8" edge="1">
                    <mxGeometry x="-0.0159" y="-10" width="160" relative="1" as="geometry">
                        <mxPoint x="-4129" y="-1470" as="sourcePoint"/>
                        <mxPoint x="-4550" y="-1630" as="targetPoint"/>
                        <mxPoint as="offset"/>
                    </mxGeometry>
                </mxCell>
                <mxCell id="20" value="Accès Parcours sur une carte&amp;nbsp;(Show)" style="ellipse;whiteSpace=wrap;html=1;" parent="1" vertex="1">
                    <mxGeometry x="-4690" y="-1665" width="140" height="70" as="geometry"/>
                </mxCell>
                <mxCell id="21" value="Changer langue&lt;br&gt;&amp;nbsp;interface" style="ellipse;whiteSpace=wrap;html=1;" parent="1" vertex="1">
                    <mxGeometry x="-4040" y="-1230" width="140" height="70" as="geometry"/>
                </mxCell>
                <mxCell id="22" value="&lt;h1&gt;Détails-Page&lt;/h1&gt;&lt;p&gt;Nom évènements, Description Catégorie, Mobilités, Nôte(s), Commentaires, Nombre préinscrit, Date, Time Left, Prix Globale&lt;/p&gt;" style="text;html=1;strokeColor=none;fillColor=none;spacing=5;spacingTop=-20;whiteSpace=wrap;overflow=hidden;rounded=0;" parent="1" vertex="1">
                    <mxGeometry x="-4250" y="-1750" width="190" height="120" as="geometry"/>
                </mxCell>
                <mxCell id="23" value="" style="curved=1;endArrow=classic;html=1;rounded=0;exitX=0.01;exitY=0.17;exitDx=0;exitDy=0;entryX=0.377;entryY=0.014;entryDx=0;entryDy=0;entryPerimeter=0;exitPerimeter=0;" parent="1" source="22" target="8" edge="1">
                    <mxGeometry width="50" height="50" relative="1" as="geometry">
                        <mxPoint x="-4210" y="-1670" as="sourcePoint"/>
                        <mxPoint x="-4160" y="-1720" as="targetPoint"/>
                        <Array as="points">
                            <mxPoint x="-4340" y="-1710"/>
                            <mxPoint x="-4250" y="-1690"/>
                            <mxPoint x="-4360" y="-1690"/>
                            <mxPoint x="-4300" y="-1710"/>
                            <mxPoint x="-4420" y="-1730"/>
                            <mxPoint x="-4380" y="-1710"/>
                            <mxPoint x="-4350" y="-1700"/>
                            <mxPoint x="-4390" y="-1690"/>
                            <mxPoint x="-4350" y="-1680"/>
                        </Array>
                    </mxGeometry>
                </mxCell>
                <mxCell id="24" value="S'inscrire" style="ellipse;whiteSpace=wrap;html=1;" parent="1" vertex="1">
                    <mxGeometry x="-4220" y="-1260" width="140" height="70" as="geometry"/>
                </mxCell>
                <mxCell id="25" style="edgeStyle=none;rounded=0;orthogonalLoop=1;jettySize=auto;html=1;exitX=0.5;exitY=0.5;exitDx=0;exitDy=0;exitPerimeter=0;entryX=1;entryY=0;entryDx=0;entryDy=0;" parent="1" source="5" target="24" edge="1">
                    <mxGeometry relative="1" as="geometry">
                        <mxPoint x="-3775" y="-1510" as="sourcePoint"/>
                        <mxPoint x="-4002" y="-1390" as="targetPoint"/>
                    </mxGeometry>
                </mxCell>
                <mxCell id="26" value="" style="endArrow=open;endSize=12;dashed=1;html=1;rounded=0;entryX=0;entryY=1;entryDx=0;entryDy=0;exitX=1;exitY=0;exitDx=0;exitDy=0;" parent="1" source="28" target="13" edge="1">
                    <mxGeometry width="160" relative="1" as="geometry">
                        <mxPoint x="-4420" y="-1280" as="sourcePoint"/>
                        <mxPoint x="-4339" y="-1260" as="targetPoint"/>
                    </mxGeometry>
                </mxCell>
                <mxCell id="27" value="Include" style="edgeLabel;html=1;align=center;verticalAlign=middle;resizable=0;points=[];" parent="26" vertex="1" connectable="0">
                    <mxGeometry x="-0.004" relative="1" as="geometry">
                        <mxPoint as="offset"/>
                    </mxGeometry>
                </mxCell>
                <mxCell id="28" value="Autoriser Localisation&lt;br&gt;(Navigateur)" style="ellipse;whiteSpace=wrap;html=1;" parent="1" vertex="1">
                    <mxGeometry x="-4590" y="-1270" width="140" height="70" as="geometry"/>
                </mxCell>
                <mxCell id="29" style="edgeStyle=none;rounded=0;orthogonalLoop=1;jettySize=auto;html=1;exitX=0.5;exitY=0.5;exitDx=0;exitDy=0;exitPerimeter=0;entryX=0.5;entryY=0;entryDx=0;entryDy=0;" parent="1" source="5" target="21" edge="1">
                    <mxGeometry relative="1" as="geometry">
                        <mxPoint x="-3785" y="-1480" as="sourcePoint"/>
                        <mxPoint x="-4090" y="-1240" as="targetPoint"/>
                    </mxGeometry>
                </mxCell>
            </root>
        </mxGraphModel>
    </diagram>
</mxfile>